<?xml version="1.0" encoding="UTF-8" standalone="no"?>
<!-- Created with Inkscape (http://www.inkscape.org/) -->

<svg
   version="1.1"
   id="svg1"
   width="1024"
   height="1024"
   viewBox="0 0 1024 1024"
   sodipodi:docname="logo.svg"
   inkscape:version="1.4.2 (ebf0e940, 2025-05-08)"
   xmlns:inkscape="http://www.inkscape.org/namespaces/inkscape"
   xmlns:sodipodi="http://sodipodi.sourceforge.net/DTD/sodipodi-0.dtd"
   xmlns="http://www.w3.org/2000/svg"
   xmlns:svg="http://www.w3.org/2000/svg">
  <defs
     id="defs1" />
  <sodipodi:namedview
     id="namedview1"
     pagecolor="#ffffff"
     bordercolor="#000000"
     borderopacity="0.25"
     inkscape:showpageshadow="2"
     inkscape:pageopacity="0.0"
     inkscape:pagecheckerboard="0"
     inkscape:deskcolor="#d1d1d1"
     inkscape:zoom="0.39973279"
     inkscape:cx="337.72561"
     inkscape:cy="609.15694"
     inkscape:window-width="1344"
     inkscape:window-height="792"
     inkscape:window-x="105"
     inkscape:window-y="25"
     inkscape:window-maximized="0"
     inkscape:current-layer="g1" />
  <g
     inkscape:groupmode="layer"
     inkscape:label="Image"
     id="g1">
    <path
       style="fill:#91a6df;stroke:none"
       d="m 508.87224,853.72439 c 0,11.3129 -2.81451,27.1147 3.85419,36.9953 5.40213,8.0041 13.46679,8.0047 22.14581,8.0047 h 45 c -5.50861,-23.1384 -1,-52.2041 -1,-76 0,-11.3633 1.89575,-24.6191 -8.01544,-32.6096 -10.84717,-8.7452 -28.98499,-5.3904 -41.98456,-5.3904 h -99 c -12.52771,0 -30.32028,-3.3449 -40.95987,4.6381 -10.52167,7.8945 -7.04013,24.8238 -7.04013,36.3619 h -86 c 0,-33.6486 -2.93301,-65.7756 -19.30865,-96 -19.81501,-36.5724 -52.68111,-63.00766 -77.31711,-95.99997 -11.4977,-15.39759 -21.05521,-32.55225 -29.0656,-50 -5.20294,-11.33277 -8.71597,-24.87915 -20.30864,-31.4668 -13.52068,-7.68323 -35.93729,-3.5332 -51.000004,-3.5332 v -74 c 0,-6.71741 -2.84599,-21.93811 1.02778,-27.56635 2.648424,-3.8479 12.688964,-3.24219 16.972224,-4.04474 11.78149,-2.2074 22.30943,-5.72766 30.98534,-14.40356 7.66046,-7.66046 12.15051,-17.76392 17.61805,-26.98535 9.95197,-16.78486 19.65424,-33.70105 30.39969,-50 16.94747,-25.7063 40.97055,-48.22229 55.6852,-75 17.98511,-32.72931 16.48515,-72.85126 3.31172,-107 20.25522,4.19195 37.45752,15.53619 51.96063,30.03936 8.5517,8.55176 16.30033,23.11475 29.03937,25.64508 17.3074,3.43775 39.64716,-5.91308 57,-8.41363 32.4874,-4.6814 66.16599,-5.66919 99,-4.23145 92.79852,4.06342 190.61938,49.38239 247.25464,124.96064 25.53686,34.0783 37.20697,70.87353 51.83948,110 6.93408,18.54138 38.19439,12 53.90588,12 6.43365,0 14.3775,1.21557 19.95679,-2.70295 6.81445,-4.78601 6.27801,-12.06714 4.84338,-19.29705 -2.83508,-14.28754 -7.02801,-28.45612 -12.40124,-42 -23.32691,-58.79816 -59.11219,-111.68592 -106.39893,-153.83411 -45.22467,-40.31018 -104.19244,-76.11035 -163,-92.01465 -29.90002,-8.08636 -62.19513,-10.38202 -93,-11.1366 -30.32629,-0.74285 -60.85516,0.23792 -91,3.15509 -12.14975,1.17572 -29.12698,7.56281 -41,5.56177 -5.17422,-0.87207 -9.42044,-7.27508 -13,-10.69214 -7.18561,-6.85943 -15.50723,-12.54419 -24,-17.63971 -35.90179,-21.540583 -84.13535,-35.977113 -125,-20.334843 -6.01585,2.302743 -11.8932,5.502263 -16.99614,9.438303 -38.58183,29.75903 0.90927,67.24396 2.96759,103.49689 1.32755,23.38183 -13.73595,40.43621 -25.97453,59 -14.00444,21.24224 -27.47812,42.93231 -40.14661,65 -6.52957,11.37408 -12.73683,27.21722 -22.864974,35.7724 -6.43408,5.43481 -17.01693,5.49371 -24.98534,7.03082 -15.90236,3.0675 -32.80086,8.78876 -42.03009,23.19678 -8.21644,12.82696 -3.96991,35.35626 -3.96991,50 v 74 c 0,25.08789 -0.19671,49.2882 18.17361,68.96063 10.44896,11.18963 24.93732,17.93902 39.82639,20.57562 6.49883,1.15082 19.778824,-0.97961 24.581794,3.78162 4.21597,4.17944 6.0051,12.39453 8.66589,17.68213 5.55895,11.04687 12.03432,21.90472 19.1767,32 19.52865,27.60237 44.86807,50.06517 65.10031,76.99997 10.72862,14.2828 19.71175,30.2133 22.86034,48 2.03849,11.5156 -0.32334,23.4032 0.78472,35 2.70205,28.279 19.28409,55.2708 46.83025,65.3048 33.70938,12.2789 76.60593,5.6952 112,5.6952 13.75998,0 32.17554,3.1833 45,-2.5293 18.37766,-8.1864 10.59164,-30.3993 22.70215,-41.8673 3.27664,-3.1028 11.13925,-1.6034 15.29785,-1.6034 h 41 m 183,-209.99997 c -16.2829,0 -46.80457,-5.96094 -58.46759,8.09338 -10.6225,12.80035 -5.53241,39.34329 -5.53241,54.90659 v 142 c 0,16.5857 -5.67566,45.5048 8.04321,57.7862 7.06818,6.3277 18.93695,6.1695 27.95679,6.213 19.99896,0.096 40.00079,8e-4 60,8e-4 82.06915,0 165.01947,3.5504 247,-0.039 9.18567,-0.4023 18.69238,-2.5078 23.77545,-10.9645 4.61054,-7.6705 3.22455,-17.4417 3.22455,-25.9962 v -52 -125.9999 c 0,-14.3337 4.54476,-37.04273 -7.09338,-47.78705 -12.54364,-11.58033 -40.09156,-6.21295 -55.90662,-6.21295 0,-34.96045 0.29138,-67.99671 -18.44983,-99 -40.04578,-66.24695 -139.54486,-75.57148 -191.37964,-18 -30.45093,33.82104 -33.17053,73.86206 -33.17053,117 m 178,0 h -114 c 0,-22.31061 -3.09955,-46.83436 10.78552,-66 23.77411,-32.81556 77.72858,-30.01008 96.89118,6 9.53045,17.90942 6.3233,40.44995 6.3233,60 m -56,87.5756 c 17.8844,0.1323 30.68903,18.5186 24.89197,35.4243 -2.13404,6.2234 -9.01184,10.0718 -10.5741,16.0394 -4.0719,15.554 8.81665,43.267 -16.31787,42.9568 -20.01166,-0.247 -11.14185,-29.2468 -13.14813,-41.9923 -1.04975,-6.6688 -9.03333,-10.3343 -11.25311,-17.0039 -5.78241,-17.3738 8.2821,-35.5583 26.40124,-35.4243 z"
       id="path3744" />
    <path
       style="fill:#000000"
       id="path1" />
  </g>
</svg>
