<svg width="20" height="20" viewBox="0 0 20 20" fill="none" xmlns="http://www.w3.org/2000/svg">
<g clip-path="url(#clip0_4447_16)">
<path d="M9.21904 9.09575C10.1447 8.31284 10.8512 7.30294 11.2693 6.16493C11.6874 5.02691 11.8028 3.79983 11.6041 2.60383C12.3472 2.99082 13.0095 3.51613 13.5555 4.15158C14.6636 5.47217 15.2018 7.17887 15.0515 8.89621C14.9013 10.6136 14.075 12.2009 12.7544 13.309C11.4338 14.4171 9.72709 14.9552 8.00973 14.805C6.29238 14.6547 4.70507 13.8284 3.59696 12.5078C3.05656 11.8545 2.64751 11.1028 2.3923 10.2943C3.53634 10.7044 4.7674 10.8094 5.96444 10.5993C7.16142 10.3891 8.28307 9.87095 9.21904 9.09575Z" stroke="#8BAED6" stroke-linecap="round" stroke-linejoin="round"/>
</g>
<defs>
<clipPath id="clip0_4447_16">
<rect width="14" height="14" fill="white" transform="matrix(-0.642788 -0.766044 -0.766044 0.642788 19.7236 10.7246)"/>
</clipPath>
</defs>
</svg>


