<svg width="14" height="14" viewBox="0 0 14 14" fill="none" xmlns="http://www.w3.org/2000/svg">
<path d="M2.74244 4.26595L0.548035 3.08496L0.548049 7.86289L5.89501 11.5079C6.58619 11.979 7.49759 11.9703 8.1796 11.4859L13.4023 7.83946V2.63208L10.6964 4.09469L8.66313 3.87715C7.91646 3.79726 7.16953 4.00044 6.56813 4.44218C6.55401 4.44218 6.54036 4.43703 6.52961 4.42786C6.02528 3.99752 5.35522 3.81358 4.7012 3.92681L2.74244 4.26595Z" fill="#F0F6FF"/>
<path d="M0.548035 3.08496L2.74244 4.26595L4.70121 3.92681C5.36243 3.81232 6.04005 4.0016 6.54623 4.44217" stroke="#4E7BB5" stroke-linecap="round" stroke-linejoin="round"/>
<path d="M11.2822 9.28251L8.17962 11.4859C7.49762 11.9703 6.58622 11.979 5.89504 11.5078L0.548065 7.86292" stroke="#4E7BB5" stroke-linecap="round" stroke-linejoin="round"/>
<path d="M13.4023 7.83947L11.207 9.33958L7.80082 6.58927L6.54792 7.50115C6.03847 7.87194 5.32678 7.77204 4.9391 7.27532C4.55231 6.77974 4.62693 6.06696 5.10797 5.66222L6.41255 4.56457C7.03782 4.03848 7.85064 3.79021 8.66315 3.87715L10.6964 4.09469L13.4023 2.63208" stroke="#4E7BB5" stroke-linecap="round" stroke-linejoin="round"/>
<path d="M7.80127 6.59668C8.62087 7.3269 9.78322 6.95437 10.2154 6.35828" stroke="#4E7BB5" stroke-linecap="round" stroke-linejoin="round"/>
</svg>
