<svg width="14" height="14" viewBox="0 0 14 14" fill="none" xmlns="http://www.w3.org/2000/svg">
<path d="M11.5 5.03108C11.5055 4.22784 11.296 3.43776 10.8931 2.74285C10.4902 2.04795 9.9086 1.47356 9.20876 1.07931C8.50891 0.68506 7.71628 0.485325 6.91318 0.50084C6.11007 0.516354 5.32575 0.746553 4.64165 1.16754C3.95755 1.58852 3.39861 2.18495 3.02284 2.89489C2.64708 3.60484 2.46819 4.40242 2.50476 5.20485C2.54132 6.00727 2.79201 6.78528 3.23078 7.45811C3.66956 8.13094 4.28043 8.67405 4.99998 9.03108V10.5311C4.99998 10.6637 5.05266 10.7909 5.14643 10.8846C5.2402 10.9784 5.36738 11.0311 5.49998 11.0311H8.49999C8.63259 11.0311 8.75977 10.9784 8.85354 10.8846C8.94731 10.7909 8.99999 10.6637 8.99999 10.5311V9.03108C9.74746 8.6628 10.3774 8.09336 10.8191 7.38675C11.2607 6.68013 11.4965 5.86434 11.5 5.03108Z" fill="#F0F6FF"/>
<path d="M11.5 5.03108C11.5055 4.22784 11.296 3.43776 10.8931 2.74285C10.4902 2.04795 9.9086 1.47356 9.20876 1.07931C8.50891 0.68506 7.71628 0.485325 6.91318 0.50084C6.11007 0.516354 5.32575 0.746553 4.64165 1.16754C3.95755 1.58852 3.39861 2.18495 3.02284 2.89489C2.64708 3.60484 2.46819 4.40242 2.50476 5.20485C2.54132 6.00727 2.79201 6.78528 3.23078 7.45811C3.66956 8.13094 4.28043 8.67405 4.99998 9.03108V10.5311C4.99998 10.6637 5.05266 10.7909 5.14643 10.8846C5.2402 10.9784 5.36738 11.0311 5.49998 11.0311H8.49999C8.63259 11.0311 8.75977 10.9784 8.85354 10.8846C8.94731 10.7909 8.99999 10.6637 8.99999 10.5311V9.03108C9.74746 8.6628 10.3774 8.09336 10.8191 7.38675C11.2607 6.68013 11.4965 5.86434 11.5 5.03108Z" stroke="#4E7BB5" stroke-linecap="round" stroke-linejoin="round"/>
<path d="M5 13.5H9" stroke="#4E7BB5" stroke-linecap="round" stroke-linejoin="round"/>
</svg>
