<svg width="14" height="14" viewBox="0 0 14 14" fill="none" xmlns="http://www.w3.org/2000/svg">
<path fill-rule="evenodd" clip-rule="evenodd" d="M4.5 1.5H2.75C2.48478 1.5 2.23043 1.60536 2.04289 1.79289C1.85536 1.98043 1.75 2.23478 1.75 2.5V12.5C1.75 12.7652 1.85536 13.0196 2.04289 13.2071C2.23043 13.3946 2.48478 13.5 2.75 13.5H11.25C11.5152 13.5 11.7696 13.3946 11.9571 13.2071C12.1446 13.0196 12.25 12.7652 12.25 12.5V2.5C12.25 2.23478 12.1446 1.98043 11.9571 1.79289C11.7696 1.60536 11.5152 1.5 11.25 1.5H9.5V2C9.5 2.55228 9.05228 3 8.5 3H5.5C4.94772 3 4.5 2.55228 4.5 2V1.5Z" fill="#F0F6FF"/>
<path d="M9.75 1.5H11.25C11.5152 1.5 11.7696 1.60536 11.9571 1.79289C12.1446 1.98043 12.25 2.23478 12.25 2.5V12.5C12.25 12.7652 12.1446 13.0196 11.9571 13.2071C11.7696 13.3946 11.5152 13.5 11.25 13.5H2.75C2.48478 13.5 2.23043 13.3946 2.04289 13.2071C1.85536 13.0196 1.75 12.7652 1.75 12.5V2.5C1.75 2.23478 1.85536 1.98043 2.04289 1.79289C2.23043 1.60536 2.48478 1.5 2.75 1.5H4.25" stroke="#4E7BB5" stroke-linecap="round" stroke-linejoin="round"/>
<path d="M8.5 0.5H5.5C4.94772 0.5 4.5 0.947715 4.5 1.5V2C4.5 2.55228 4.94772 3 5.5 3H8.5C9.05228 3 9.5 2.55228 9.5 2V1.5C9.5 0.947715 9.05228 0.5 8.5 0.5Z" fill="white"/>
<path d="M8.5 0.5H5.5C4.94772 0.5 4.5 0.947715 4.5 1.5V2C4.5 2.55228 4.94772 3 5.5 3H8.5C9.05228 3 9.5 2.55228 9.5 2V1.5C9.5 0.947715 9.05228 0.5 8.5 0.5Z" stroke="#4E7BB5" stroke-linecap="round" stroke-linejoin="round"/>
<path d="M6.30274 5.20996C6.0656 5.20996 5.87336 5.4022 5.87336 5.63935V6.84701H4.66571C4.42857 6.84701 4.23633 7.03925 4.23633 7.27639V8.67189C4.23633 8.90903 4.42857 9.10128 4.66571 9.10128H5.87336V10.3089C5.87336 10.546 6.0656 10.7383 6.30274 10.7383H7.69824C7.93538 10.7383 8.12762 10.546 8.12762 10.3089V9.10128H9.33526C9.57241 9.10128 9.76465 8.90904 9.76465 8.67189V7.27639C9.76465 7.03925 9.57241 6.84701 9.33526 6.84701H8.12762V5.63935C8.12762 5.4022 7.93538 5.20996 7.69824 5.20996H6.30274Z" fill="white"/>
<path d="M6.30274 5.21008C6.0656 5.21008 5.87336 5.40232 5.87336 5.63947V6.84713H4.66571C4.42857 6.84713 4.23633 7.03937 4.23633 7.27652V8.67201C4.23633 8.90916 4.42857 9.1014 4.66571 9.1014H5.87336V10.309C5.87336 10.5462 6.0656 10.7384 6.30274 10.7384H7.69824C7.93538 10.7384 8.12762 10.5462 8.12762 10.309V9.1014H9.33526C9.57241 9.1014 9.76465 8.90916 9.76465 8.67201V7.27652C9.76465 7.03937 9.57241 6.84713 9.33526 6.84713H8.12762V5.63947C8.12762 5.40232 7.93538 5.21008 7.69824 5.21008H6.30274Z" stroke="#4E7BB5" stroke-linecap="round" stroke-linejoin="round"/>
</svg>
