<svg width="14" height="14" viewBox="0 0 14 14" fill="none" xmlns="http://www.w3.org/2000/svg">
<g clip-path="url(#clip0_4482_49)">
<path d="M6.51 13.07C5.9916 13.4038 5.37457 13.5501 4.76148 13.4847C4.1484 13.4192 3.5762 13.1458 3.14 12.71L2.76 12.33C2.59146 12.1597 2.49692 11.9297 2.49692 11.69C2.49692 11.4504 2.59146 11.2204 2.76 11.05L4.36 9.46003C4.52867 9.2921 4.75699 9.19782 4.995 9.19782C5.23302 9.19782 5.46134 9.2921 5.63 9.46003C5.80037 9.62858 6.03035 9.72312 6.27 9.72312C6.50966 9.72312 6.73963 9.62858 6.91 9.46003L9.46 6.91003C9.62855 6.73966 9.72309 6.50969 9.72309 6.27003C9.72309 6.03038 9.62855 5.8004 9.46 5.63003C9.29207 5.46136 9.19779 5.23304 9.19779 4.99503C9.19779 4.75702 9.29207 4.5287 9.46 4.36003L11 2.76003C11.1704 2.59149 11.4004 2.49695 11.64 2.49695C11.8797 2.49695 12.1096 2.59149 12.28 2.76003L12.66 3.14003C13.1036 3.57007 13.3863 4.13923 13.4609 4.75253C13.5355 5.36584 13.3975 5.98618 13.07 6.51003C11.3263 9.09881 9.09878 11.3263 6.51 13.07Z" fill="#F0F6FF"/>
<path d="M6.51 13.07C5.9916 13.4038 5.37456 13.5501 4.76148 13.4847C4.14839 13.4192 3.57619 13.1458 3.14 12.71L2.76 12.33C2.59145 12.1597 2.49692 11.9297 2.49692 11.69C2.49692 11.4504 2.59145 11.2204 2.76 11.05L4.36 9.46003C4.52867 9.2921 4.75699 9.19782 4.995 9.19782C5.23301 9.19782 5.46133 9.2921 5.63 9.46003C5.80037 9.62858 6.03035 9.72312 6.27 9.72312C6.50965 9.72312 6.73963 9.62858 6.91 9.46003L9.46 6.91003C9.62855 6.73966 9.72308 6.50969 9.72308 6.27003C9.72308 6.03038 9.62855 5.8004 9.46 5.63003C9.29207 5.46136 9.19779 5.23304 9.19779 4.99503C9.19779 4.75702 9.29207 4.5287 9.46 4.36003L11 2.76003C11.1704 2.59149 11.4003 2.49695 11.64 2.49695C11.8797 2.49695 12.1096 2.59149 12.28 2.76003L12.66 3.14003C13.1036 3.57007 13.3863 4.13923 13.4609 4.75253C13.5355 5.36584 13.3975 5.98618 13.07 6.51003C11.3263 9.09881 9.09878 11.3263 6.51 13.07Z" stroke="#4E7BB5" stroke-linecap="round" stroke-linejoin="round"/>
<path d="M7 0.5C6.14641 0.5 5.30117 0.668127 4.51256 0.994783C3.72394 1.32144 3.00739 1.80023 2.40381 2.40381C1.80022 3.00739 1.32144 3.72394 0.994783 4.51256C0.668128 5.30117 0.5 6.14641 0.5 7" stroke="#4E7BB5" stroke-linecap="round" stroke-linejoin="round"/>
<path d="M7 3C5.93913 3 4.92172 3.42143 4.17157 4.17157C3.42143 4.92172 3 5.93913 3 7" stroke="#4E7BB5" stroke-linecap="round" stroke-linejoin="round"/>
</g>
<defs>
<clipPath id="clip0_4482_49">
<rect width="14" height="14" fill="white"/>
</clipPath>
</defs>
</svg>
