<svg width="30" height="30" viewBox="0 0 30 30" fill="none" xmlns="http://www.w3.org/2000/svg">
<g clip-path="url(#clip0_4403_22)">
<path d="M26.4857 12.8573H3.5142C3.20775 12.8546 2.9043 12.9178 2.62431 13.0425C2.34435 13.1671 2.09439 13.3504 1.89129 13.5799C1.68818 13.8094 1.53667 14.0798 1.44698 14.3729C1.35728 14.6659 1.33149 14.9748 1.37134 15.2787L2.93563 27.0643C3.00362 27.5831 3.25907 28.0592 3.65381 28.4025C4.04854 28.746 4.55529 28.9331 5.07849 28.9286H24.8786C25.4016 28.9331 25.9084 28.746 26.3031 28.4025C26.6979 28.0592 26.9533 27.5831 27.0214 27.0643L28.5857 15.2787C28.6249 14.9784 28.6003 14.6732 28.5131 14.3831C28.4259 14.0931 28.2782 13.8248 28.0798 13.596C27.8814 13.3672 27.6366 13.1831 27.3619 13.0557C27.0872 12.9284 26.7885 12.8607 26.4857 12.8573Z" stroke="#8BAED6" stroke-linecap="round" stroke-linejoin="round"/>
<path d="M9.64282 18.2144V23.5715" stroke="#8BAED6" stroke-linecap="round" stroke-linejoin="round"/>
<path d="M15 18.2144V23.5715" stroke="#8BAED6" stroke-linecap="round" stroke-linejoin="round"/>
<path d="M20.3572 18.2144V23.5715" stroke="#8BAED6" stroke-linecap="round" stroke-linejoin="round"/>
<path d="M20.3142 3.30029C21.5978 3.52206 22.7738 4.15699 23.6635 5.10852C24.5533 6.06004 25.1078 7.27611 25.2428 8.57172L25.7143 12.8574" stroke="#8BAED6" stroke-linecap="round" stroke-linejoin="round"/>
<path d="M4.28577 12.8573L4.7572 8.57159C4.90102 7.28365 5.45945 6.07732 6.34837 5.1343C7.2373 4.19127 8.40856 3.56262 9.68577 3.34302" stroke="#8BAED6" stroke-linecap="round" stroke-linejoin="round"/>
<path d="M20.3571 3.7501C20.3571 4.10185 20.2878 4.45018 20.1532 4.77514C20.0186 5.10013 19.8213 5.39541 19.5726 5.64413C19.3238 5.89288 19.0286 6.09017 18.7036 6.22478C18.3786 6.3594 18.0303 6.42868 17.6785 6.42868H12.3214C11.611 6.42868 10.9297 6.14646 10.4274 5.64413C9.92504 5.1418 9.64282 4.4605 9.64282 3.7501C9.64282 3.0397 9.92504 2.3584 10.4274 1.85607C10.9297 1.35374 11.611 1.07153 12.3214 1.07153H17.6785C18.3889 1.07153 19.0702 1.35374 19.5726 1.85607C20.0749 2.3584 20.3571 3.0397 20.3571 3.7501Z" stroke="#8BAED6" stroke-linecap="round" stroke-linejoin="round"/>
</g>
<defs>
<clipPath id="clip0_4403_22">
<rect width="30" height="30" fill="white"/>
</clipPath>
</defs>
</svg>
