<svg width="30" height="30" viewBox="0 0 30 30" fill="none" xmlns="http://www.w3.org/2000/svg">
<path d="M2.6571 14.0145L27.3 2.80737" stroke="#8BAED6" stroke-linecap="round" stroke-linejoin="round"/>
<path d="M22.6929 1.07153L27.3 2.80725L25.5857 7.41439" stroke="#8BAED6" stroke-linecap="round" stroke-linejoin="round"/>
<path d="M28.3929 28.9286H23.0358V13.9286C23.0358 13.6444 23.1487 13.3719 23.3495 13.171C23.5505 12.9701 23.8231 12.8572 24.1072 12.8572H27.3215C27.6056 12.8572 27.8782 12.9701 28.0792 13.171C28.28 13.3719 28.3929 13.6444 28.3929 13.9286V28.9286Z" stroke="#8BAED6" stroke-linecap="round" stroke-linejoin="round"/>
<path d="M17.6786 28.9287H12.3214V17.143C12.3214 16.8588 12.4343 16.5863 12.6352 16.3854C12.8361 16.1844 13.1087 16.0715 13.3928 16.0715H16.6071C16.8913 16.0715 17.1638 16.1844 17.3647 16.3854C17.5657 16.5863 17.6786 16.8588 17.6786 17.143V28.9287Z" stroke="#8BAED6" stroke-linecap="round" stroke-linejoin="round"/>
<path d="M6.96432 28.9287H1.60718V20.3573C1.60718 20.0732 1.72006 19.8006 1.92099 19.5997C2.12192 19.3988 2.39444 19.2859 2.67861 19.2859H5.89289C6.17706 19.2859 6.44958 19.3988 6.6505 19.5997C6.85143 19.8006 6.96432 20.0732 6.96432 20.3573V28.9287Z" stroke="#8BAED6" stroke-linecap="round" stroke-linejoin="round"/>
</svg>
