<svg width="30" height="30" viewBox="0 0 30 30" fill="none" xmlns="http://www.w3.org/2000/svg">
<g clip-path="url(#clip0_4403_12)">
<path d="M3.21423 18.2144V27.8572C3.21423 28.1414 3.32712 28.4139 3.52805 28.6149C3.72897 28.8157 4.0015 28.9286 4.28566 28.9286H25.7142C25.9984 28.9286 26.2709 28.8157 26.4719 28.6149C26.6727 28.4139 26.7857 28.1414 26.7857 27.8572V18.2144" stroke="#8BAED6" stroke-linecap="round" stroke-linejoin="round"/>
<path d="M17.1428 18.2144V28.9286" stroke="#8BAED6" stroke-linecap="round" stroke-linejoin="round"/>
<path d="M3.21423 21.4287H17.1428" stroke="#8BAED6" stroke-linecap="round" stroke-linejoin="round"/>
<path d="M1.07141 8.57153L4.2857 1.07153H25.7143L28.9286 8.57153H1.07141Z" stroke="#8BAED6" stroke-linecap="round" stroke-linejoin="round"/>
<path d="M10.2428 8.57153V10.7144C10.2428 11.851 9.79132 12.9411 8.98758 13.7448C8.18385 14.5486 7.09376 15.0001 5.95713 15.0001H5.35713C4.22049 15.0001 3.1304 14.5486 2.32668 13.7448C1.52294 12.9411 1.07141 11.851 1.07141 10.7144V8.57153" stroke="#8BAED6" stroke-linecap="round" stroke-linejoin="round"/>
<path d="M19.8214 8.57153V10.7144C19.8214 11.851 19.3699 12.9411 18.5662 13.7448C17.7625 14.5486 16.6724 15.0001 15.5357 15.0001H14.4643C13.3277 15.0001 12.2376 14.5486 11.4339 13.7448C10.6301 12.9411 10.1786 11.851 10.1786 10.7144V8.57153" stroke="#8BAED6" stroke-linecap="round" stroke-linejoin="round"/>
<path d="M28.9286 8.57153V10.7144C28.9286 11.851 28.4771 12.9411 27.6733 13.7448C26.8695 14.5486 25.7794 15.0001 24.6428 15.0001H24.1071C22.9706 15.0001 21.8805 14.5486 21.0767 13.7448C20.2729 12.9411 19.8214 11.851 19.8214 10.7144V8.57153" stroke="#8BAED6" stroke-linecap="round" stroke-linejoin="round"/>
</g>
<defs>
<clipPath id="clip0_4403_12">
<rect width="30" height="30" fill="white"/>
</clipPath>
</defs>
</svg>
