<svg width="14" height="14" viewBox="0 0 14 14" fill="none" xmlns="http://www.w3.org/2000/svg">
<g clip-path="url(#clip0_4437_1109)">
<path d="M4.77015 4V4.9977C4.77015 5.52691 4.55992 6.03445 4.18571 6.40866C3.8115 6.78286 3.30396 6.99309 2.77475 6.99309H2.4954C1.96618 6.99309 1.45865 6.78286 1.08444 6.40866C0.710229 6.03445 0.5 5.52691 0.5 4.9977V4" fill="#D7E0FF"/>
<path d="M4.77015 4V4.9977C4.77015 5.52691 4.55992 6.03445 4.18571 6.40866C3.8115 6.78286 3.30396 6.99309 2.77475 6.99309H2.4954C1.96618 6.99309 1.45865 6.78286 1.08444 6.40866C0.710229 6.03445 0.5 5.52691 0.5 4.9977V4" stroke="#8BAED6" stroke-linecap="round" stroke-linejoin="round"/>
<path d="M13.5 4V4.9977C13.5 5.52691 13.2898 6.03445 12.9156 6.40866C12.5413 6.78286 12.0338 6.99309 11.5046 6.99309H11.2552C10.726 6.99309 10.2184 6.78286 9.84422 6.40866C9.47001 6.03445 9.25978 5.52691 9.25978 4.9977V4" fill="#D7E0FF"/>
<path d="M13.5 4V4.9977C13.5 5.52691 13.2898 6.03445 12.9156 6.40866C12.5414 6.78286 12.0338 6.99309 11.5046 6.99309H11.2552C10.726 6.99309 10.2184 6.78286 9.84422 6.40866C9.47001 6.03445 9.25978 5.52691 9.25978 4.9977V4" stroke="#8BAED6" stroke-linecap="round" stroke-linejoin="round"/>
<path d="M1.5 8.5V13C1.5 13.1326 1.55268 13.2598 1.64645 13.3536C1.74021 13.4473 1.86739 13.5 2 13.5H12C12.1326 13.5 12.2598 13.4473 12.3536 13.3536C12.4473 13.2598 12.5 13.1326 12.5 13V8.5" fill="white"/>
<path d="M9.25978 4V4.9977C9.25978 5.52691 9.04955 6.03445 8.67534 6.40866C8.30113 6.78286 7.7936 6.99309 7.26439 6.99309H6.76554C6.23633 6.99309 5.72879 6.78286 5.35458 6.40866C4.98037 6.03445 4.77014 5.52691 4.77014 4.9977V4" fill="#D7E0FF"/>
<path d="M1.5 10H8V13.5H1.5V10Z" fill="#D7E0FF"/>
<path d="M1.5 8.5V13C1.5 13.1326 1.55268 13.2598 1.64645 13.3536C1.74021 13.4473 1.86739 13.5 2 13.5H12C12.1326 13.5 12.2598 13.4473 12.3536 13.3536C12.4473 13.2598 12.5 13.1326 12.5 13V8.5" stroke="#8BAED6" stroke-linecap="round" stroke-linejoin="round"/>
<path d="M8 8.5V13.5" stroke="#8BAED6" stroke-linecap="round" stroke-linejoin="round"/>
<path d="M1.5 10H8" stroke="#8BAED6" stroke-linecap="round" stroke-linejoin="round"/>
<path d="M0.5 4L2 0.5H12L13.5 4H0.5Z" fill="#D7E0FF"/>
<path d="M0.5 4L2 0.5H12L13.5 4H0.5Z" stroke="#8BAED6" stroke-linecap="round" stroke-linejoin="round"/>
<path d="M9.25979 4V4.9977C9.25979 5.52691 9.04956 6.03445 8.67535 6.40866C8.30114 6.78286 7.7936 6.99309 7.26439 6.99309H6.76554C6.23633 6.99309 5.72879 6.78286 5.35458 6.40866C4.98037 6.03445 4.77015 5.52691 4.77015 4.9977V4" stroke="#8BAED6" stroke-linecap="round" stroke-linejoin="round"/>
</g>
<defs>
<clipPath id="clip0_4437_1109">
<rect width="14" height="14" fill="white"/>
</clipPath>
</defs>
</svg>
