<?xml version="1.0" encoding="UTF-8" standalone="no"?>
<!-- Created with Inkscape (http://www.inkscape.org/) -->

<svg
   version="1.1"
   id="svg1"
   width="390.66666"
   height="388"
   viewBox="0 0 390.66666 388"
   sodipodi:docname="light yellow duck darker blue lock.svg"
   inkscape:version="1.4.2 (ebf0e940, 2025-05-08)"
   xml:space="preserve"
   xmlns:inkscape="http://www.inkscape.org/namespaces/inkscape"
   xmlns:sodipodi="http://sodipodi.sourceforge.net/DTD/sodipodi-0.dtd"
   xmlns="http://www.w3.org/2000/svg"
   xmlns:svg="http://www.w3.org/2000/svg"><defs
     id="defs1" /><sodipodi:namedview
     id="namedview1"
     pagecolor="#ffffff"
     bordercolor="#000000"
     borderopacity="0.25"
     inkscape:showpageshadow="2"
     inkscape:pageopacity="0.0"
     inkscape:pagecheckerboard="0"
     inkscape:deskcolor="#d1d1d1"
     inkscape:zoom="0.76445936"
     inkscape:cx="192.29276"
     inkscape:cy="368.88815"
     inkscape:window-width="1024"
     inkscape:window-height="795"
     inkscape:window-x="66"
     inkscape:window-y="25"
     inkscape:window-maximized="0"
     inkscape:current-layer="g157" /><g
     inkscape:groupmode="layer"
     inkscape:label="Image"
     id="g1"><g
       id="g157"
       transform="translate(1.308114,357.11512)"><g
         id="g158"
         transform="translate(-2.616228,-350.57455)"><path
           style="fill:#fbe29a"
           d="m 61.689684,331.88206 c -6.10656,-2.7399 -6.334,-3.99981 -6.329615,-35.06296 0.0043,-30.71369 0.949026,-35.33773 7.219479,-35.33773 2.268573,0 2.776803,-1.42161 2.776803,-7.76719 0,-49.51948 68.898519,-50.7515 71.283109,-1.27466 l 0.38356,7.95814 3.31189,1.70852 c 6.21435,3.20582 6.02144,2.07939 6.02144,35.16 0,31.99842 0.23923,30.23448 -4.58961,33.84066 -2.36013,1.76255 -76.281588,2.47818 -80.077056,0.77522 z m 46.122526,-21.47959 c 0.22771,-0.59339 -0.2798,-4.01793 -1.12779,-7.61009 l -1.54181,-6.53119 1.74701,-2.0762 c 4.79313,-5.69631 1.33073,-13.59251 -5.96017,-13.59251 -7.215762,0 -10.57262,7.88852 -5.780388,13.58377 l 1.739657,2.06746 -1.487507,6.66227 c -0.818129,3.66425 -1.322327,7.09272 -1.120441,7.61883 0.571023,1.48806 12.956439,1.37608 13.531439,-0.12234 z m 16.73954,-55.12608 c 0.61867,-16.47986 -9.76526,-27.75161 -24.862066,-26.98776 -13.010561,0.65829 -21.515211,9.83417 -22.194767,23.9465 -0.461538,9.58474 -3.161182,8.62452 23.677163,8.42156 l 23.18427,-0.17532 z m 30.60966,55.12115 c -0.25945,-0.25945 -0.47173,-2.34845 -0.47173,-4.64223 v -4.1705 l 49.83334,-0.2608 49.83333,-0.26081 6.41259,-1.73034 c 57.35154,-15.47549 67.15513,-93.87426 15.00078,-119.96048 -7.2536,-3.62806 -8.53023,-6.74331 -4.25614,-10.38587 8.90833,-7.59204 19.84277,-20.73591 19.84277,-23.85223 0,-1.49135 2.35457,-2.81633 5.7721,-3.24812 13.99032,-1.76759 28.81834,-15.47273 29.15567,-26.94779 l 0.0722,-2.457 -13.97577,-0.33333 -13.97576,-0.33334 -0.55236,-2.66666 C 293.99942,90.546263 289.76641,81.894665 279.38059,71.394449 266.34992,58.220249 251.82541,52.14804 233.34385,52.14804 c -59.38694,0 -86.79588,72.10212 -42.80659,112.60727 8.38229,7.71838 7.99753,9.74066 -2.84316,14.9433 -20.2712,9.72852 -45.35372,9.4471 -65.33775,-0.73306 -6.62498,-3.37486 -9.66027,-5.92617 -26.417714,-22.20535 -8.838962,-8.58669 -16.485916,-15.70916 -16.993229,-15.82771 -0.777146,-0.18161 -0.922389,5.77208 -0.922389,37.80987 v 38.02543 l -1.429525,0.76506 c -0.786238,0.42078 -2.742374,1.9752 -4.346969,3.45426 -3.917297,3.61084 -3.592183,7.70773 -3.680486,-46.37934 -0.105533,-64.64114 -2.944445,-61.65141 28.728966,-30.25524 22.445646,22.24918 25.102746,24.43389 34.394676,28.27991 13.13922,5.43844 29.77843,5.96881 44.16667,1.4078 7.28193,-2.30834 7.27278,-2.27384 2.14954,-8.10361 -18.00536,-20.48838 -23.57096,-49.07496 -14.49592,-74.455258 6.55316,-18.327318 19.15424,-32.620507 36.44531,-41.339288 41.38739,-20.869019 92.77128,1.596975 104.80681,45.823486 2.00346,7.36205 0.78734,6.84914 16.23923,6.84914 17.05389,0 17.50181,0.3381 15.45588,11.66666 -3.07106,17.00489 -14.58694,30.43109 -30.10085,35.09419 -7.33331,2.20421 -7.38729,2.24047 -10.50234,7.05584 -1.62442,2.51109 -4.95093,6.85588 -7.39224,9.65508 -5.47247,6.27471 -5.56996,5.49431 1.32373,10.59656 50.99978,37.74663 33.84704,117.59201 -28.42915,132.33658 -5.2183,1.23549 -105.03025,2.34261 -106.19494,1.17792 z"
           id="path158" /><path
           style="fill:#6a99c1"
           d="m 61.689684,331.88206 c -6.10656,-2.7399 -6.334,-3.99981 -6.329615,-35.06296 0.0043,-30.71369 0.949026,-35.33773 7.219479,-35.33773 2.268573,0 2.776803,-1.42161 2.776803,-7.76719 0,-49.51948 68.898519,-50.7515 71.283109,-1.27466 l 0.38356,7.95814 3.31189,1.70852 c 6.21435,3.20582 6.02144,2.07939 6.02144,35.16 0,31.99842 0.23923,30.23448 -4.58961,33.84066 -2.36013,1.76255 -76.281588,2.47818 -80.077056,0.77522 z m 46.122526,-21.47959 c 0.22771,-0.59339 -0.2798,-4.01793 -1.12779,-7.61009 l -1.54181,-6.53119 1.74701,-2.0762 c 4.79313,-5.69631 1.33073,-13.59251 -5.96017,-13.59251 -7.215762,0 -10.57262,7.88852 -5.780388,13.58377 l 1.739657,2.06746 -1.487507,6.66227 c -0.818129,3.66425 -1.322327,7.09272 -1.120441,7.61883 0.571023,1.48806 12.956439,1.37608 13.531439,-0.12234 z m 16.73954,-55.12608 c 0.61867,-16.47986 -9.76526,-27.75161 -24.862066,-26.98776 -13.010561,0.65829 -21.515211,9.83417 -22.194767,23.9465 -0.461538,9.58474 -3.161182,8.62452 23.677163,8.42156 l 23.18427,-0.17532 z"
           id="path157" /></g></g></g></svg>
