<?xml version="1.0" encoding="UTF-8" standalone="no"?>
<!-- Created with Inkscape (http://www.inkscape.org/) -->

<svg
   version="1.1"
   id="svg1"
   width="390.66666"
   height="388"
   viewBox="0 0 390.66666 388"
   sodipodi:docname="darker blue lock.svg"
   inkscape:version="1.4.2 (ebf0e940, 2025-05-08)"
   xml:space="preserve"
   xmlns:inkscape="http://www.inkscape.org/namespaces/inkscape"
   xmlns:sodipodi="http://sodipodi.sourceforge.net/DTD/sodipodi-0.dtd"
   xmlns="http://www.w3.org/2000/svg"
   xmlns:svg="http://www.w3.org/2000/svg"><defs
     id="defs1" /><sodipodi:namedview
     id="namedview1"
     pagecolor="#ffffff"
     bordercolor="#000000"
     borderopacity="0.25"
     inkscape:showpageshadow="2"
     inkscape:pageopacity="0.0"
     inkscape:pagecheckerboard="0"
     inkscape:deskcolor="#d1d1d1"
     inkscape:zoom="0.76445936"
     inkscape:cx="192.29276"
     inkscape:cy="368.88815"
     inkscape:window-width="1024"
     inkscape:window-height="795"
     inkscape:window-x="66"
     inkscape:window-y="25"
     inkscape:window-maximized="0"
     inkscape:current-layer="g157" /><g
     inkscape:groupmode="layer"
     inkscape:label="Image"
     id="g1"><g
       id="g157"
       transform="translate(1.308114,357.11512)"><path
         style="fill:#6c9bc3;stroke:none"
         d="m 122.67216,-190.08437 c -11.41374,0.1394 -20.12147,8.76777 -21.24383,20 -1.957038,19.58547 -0.0895,40.30802 -0.0895,60 0,18.787197 -1.870258,38.657957 0.0895,57.333327 1.19816,11.41777 10.617,19.56503 21.91049,19.98766 41.20328,1.54193 82.76411,0.0124 124,0.0124 13.55723,0 35.9129,4.36983 46.39196,-6.17593 9.44139,-9.50148 6.94137,-24.23936 6.94137,-36.49074 v -62.666667 c 0,-10.41743 1.21301,-21.67758 -0.17285,-32 -1.47909,-11.01677 -9.6826,-19.85983 -21.16048,-20 0,-25.97229 -0.71692,-50.3478 -18.27777,-71.33334 -33.90289,-40.51456 -100.28356,-35.5566 -127.43828,10 -11.46476,19.23407 -10.95061,39.76109 -10.95061,61.33334 m 26.66666,0 c 0,-15.30174 -1.57826,-31.32406 5.90741,-45.33334 16.0172,-29.97591 56.69695,-35.90116 81.42283,-13.24381 12.46248,11.4199 16.00309,27.75152 16.00309,43.91048 0,2.92676 1.50228,12.14648 -0.98456,14.07408 -1.71629,1.33034 -5.63621,0.59259 -7.68211,0.59259 h -19.33333 -75.33333 m 50,42.17284 c 12.64684,-1.61501 22.95734,11.9939 18.72531,23.82716 -1.44202,4.03202 -7.92715,8.07993 -7.71605,12.00309 0.43628,8.10808 3.90614,16.764447 5.74074,24.663577 0.80939,3.48495 1.02303,7.82536 -3.41975,8.56173 -3.19351,0.52931 -6.76448,0.10494 -9.99692,0.10494 -4.15275,0 -11.76035,1.44987 -15.27778,-1.08643 -3.24808,-2.34208 -1.37121,-6.41225 -0.72222,-9.58024 1.43635,-7.01135 5.49095,-16.155807 4.91359,-23.293217 -0.29313,-3.62378 -5.82462,-6.48669 -7.29013,-10.04012 -4.75176,-11.52153 2.8311,-23.60099 15.04321,-25.16049 z"
         id="path163" /></g></g></svg>
